<svg version="1.1" id="Layer_1" xmlns="http://www.w3.org/2000/svg" xmlns:xlink="http://www.w3.org/1999/xlink" x="0px" y="0px" viewBox="0 0 512 512" style="enable-background:new 0 0 512 512;" xml:space="preserve"><path style="fill:#FF7976;" d="M181.215,392.613l-61.836-61.836c-7.295-7.294-7.521-19.05-0.511-26.619L377.501,24.881 c30.042-32.441,80.741-33.158,111.753-2.144c31.099,31.099,30.236,81.767-2.143,111.753L207.836,393.124 C200.266,400.134,188.509,399.907,181.215,392.613z"></path><path style="fill:#FF5752;" d="M489.254,22.737L489.254,22.737L150.297,361.694l30.918,30.918 c7.294,7.295,19.051,7.521,26.621,0.511l279.276-258.632C519.49,104.505,520.352,53.836,489.254,22.737z"></path><path style="fill:#EFEFEF;" d="M0.536,488.336l33.161-139.178c1.377-5.781,5.356-10.599,10.772-13.046l80.581-36.405 c7.28-3.288,15.832-1.727,21.479,3.92l61.836,61.836c5.647,5.647,7.21,14.202,3.92,21.479l-36.405,80.581 c-2.447,5.415-7.265,9.393-13.045,10.772L23.663,511.461C9.759,514.775-2.773,502.233,0.536,488.336z"></path><g><path style="fill:#C5D8DF;" d="M175.881,467.523l36.405-80.581c3.288-7.279,1.727-15.832-3.92-21.479l-30.918-30.918L5.642,506.349 c4.458,4.46,11.069,6.769,18.022,5.112l139.172-33.167C168.616,476.916,173.434,472.939,175.881,467.523z"></path><path style="fill:#C5D8DF;" d="M118.957,393.04c-7.496-7.498-19.653-7.498-27.15,0L1.796,483.052l-1.259,5.285 c-3.309,13.892,9.218,26.44,23.126,23.125l5.282-1.259l90.011-90.011C126.455,412.693,126.455,400.538,118.957,393.04z"></path></g><path style="fill:#9CC2D0;" d="M118.957,420.191c7.498-7.498,7.498-19.653,0-27.15c-0.001-0.001-0.003-0.003-0.004-0.004 L5.642,506.349c4.457,4.46,11.066,6.769,18.022,5.112l5.282-1.259L118.957,420.191z"></path></svg>
