<svg id="svg858" viewBox="0 0 8.4666665 8.4666669" xmlns="http://www.w3.org/2000/svg" xmlns:svg="http://www.w3.org/2000/svg"><g id="layer1" transform="translate(0 -288.533)"><path id="path1235" d="m4.7581554 289.0539c-1.7573492 0-3.1874025 1.43212-3.1874025 3.18947 0 .78342.2853002 1.50055.7560262 2.0562l-1.72495926 1.72496a.26460982.26460982 0 1 0 .3751707.37311l1.72392586-1.72393c.5557648.47114 1.273436.75706 2.057239.75706 1.75735 0 3.187402-1.43005 3.187402-3.1874s-1.430052-3.18947-3.187402-3.18947zm0 .55656c1.457408 0 2.632914 1.1755 2.632914 2.63291s-1.175506 2.6324-2.632914 2.6324c-1.4574083 0-2.6329144-1.17499-2.6329144-2.6324s1.1755061-2.63291 2.6329144-2.63291z" font-variant-ligatures="normal" font-variant-position="normal" font-variant-caps="normal" font-variant-numeric="normal" font-variant-alternates="normal" font-feature-settings="normal" text-indent="0" text-align="start" text-decoration-line="none" text-decoration-style="solid" text-decoration-color="rgb(0,0,0)" text-transform="none" text-orientation="mixed" white-space="normal" shape-padding="0" isolation="auto" mix-blend-mode="normal" solid-color="rgb(0,0,0)" solid-opacity="1" vector-effect="none" fill="#000000" style="fill: rgb(255, 255, 255);"></path></g></svg>
