<svg id="Layer_1" enable-background="new 0 0 130 130" viewBox="0 0 130 130" xmlns="http://www.w3.org/2000/svg"><g><circle cx="65" cy="65" fill="#41c19e" r="64" style="fill: rgb(255, 255, 255);"></circle><path d="m65 30c-19.3 0-35 15.7-35 35s15.7 35 35 35 35-15.7 35-35-15.7-35-35-35zm19.1 38h-16.1v16.1c0 1.7-1.4 3-3 3s-3-1.4-3-3v-16.1h-16.1c-1.7 0-3-1.4-3-3s1.4-3 3-3h16.1v-16.1c0-1.7 1.4-3 3-3s3 1.4 3 3v16.1h16.1c1.7 0 3 1.4 3 3s-1.3 3-3 3z" fill="#fff" style="fill: rgb(85, 188, 201);"></path></g></svg>
