<svg version="1.1" id="Capa_1" xmlns="http://www.w3.org/2000/svg" xmlns:xlink="http://www.w3.org/1999/xlink" x="0px" y="0px" viewBox="0 0 512 512" style="enable-background:new 0 0 512 512;" xml:space="preserve"><circle style="fill:#FFD2D1;" cx="256" cy="256" r="256"></circle><path style="fill:#FFC0C0;" d="M256,0c-17.297,0-34.19,1.726-50.525,4.996c118.149,22.7,207.418,126.604,207.418,251.376 c0,124.088-88.29,227.544-205.475,251.004C223.15,510.398,239.387,512,256,512c141.385,0,256-114.615,256-256S397.385,0,256,0z"></path><path style="fill:#FE0000;" d="M355.305,264h-198.61c-4.276,0-7.742-3.725-7.742-8s3.466-8,7.742-8h198.611 c4.276,0,7.742,3.724,7.742,8S359.581,264,355.305,264z"></path></svg>
